<svg xmlns="http://www.w3.org/2000/svg" height="24" viewBox="0 0 24 24" width="24" fill="currentColor">
  <path d="M11.485 2.143 3.913 6.687A6 6 0 001 11.832v.338a6 6 0 002.913 5.144l7.572 4.543A1 1 0 0013 21V3a1.001 1.001 0 00-1.515-.857Zm6.88 2.079a1 1 0 00-.001 1.414 9 9 0 010 12.728 1 1 0 001.414 1.414 11 11 0 000-15.556 1 1 0 00-1.413 0ZM4.941 8.402l.001-.002L11 4.767v14.466l-6.058-3.635A4 4 0 013 12.168v-.337a4 4 0 011.941-3.429ZM15.535 7.05a1 1 0 000 1.415 5 5 0 010 7.07 1 1 0 001.415 1.415 6.999 6.999 0 000-9.9 1 1 0 00-1.415 0Z"/>
</svg>
